<svg width="18" height="14" viewBox="0 0 18 14" fill="none" xmlns="http://www.w3.org/2000/svg">
<path d="M0 3.92042V3.36048C0 2.89661 0.377754 2.52057 0.84375 2.52057H13.5V0.840748C13.5 0.0929828 14.4105 -0.280603 14.9404 0.246826L17.7529 3.04653C18.0824 3.37455 18.0824 3.90635 17.7529 4.23434L14.9404 7.03404C14.4125 7.55941 13.5 7.19103 13.5 6.44015V4.76033H0.84375C0.377754 4.76033 0 4.3843 0 3.92042ZM17.1562 9.23986H4.5V7.56004C4.5 6.81412 3.59079 6.43736 3.05961 6.96611L0.247113 9.76582C-0.0823711 10.0938 -0.0823711 10.6256 0.247113 10.9536L3.05961 13.7533C3.58794 14.2792 4.5 13.9097 4.5 13.1594V11.4796H17.1562C17.6222 11.4796 18 11.1036 18 10.6397V10.0798C18 9.61589 17.6222 9.23986 17.1562 9.23986Z" fill="white"/>
</svg>
